<?xml version="1.0" standalone="no"?>
<!DOCTYPE svg PUBLIC "-//W3C//DTD SVG 20010904//EN"
 "http://www.w3.org/TR/2001/REC-SVG-20010904/DTD/svg10.dtd">
<svg version="1.0" xmlns="http://www.w3.org/2000/svg"
 width="1080.000000pt" height="1080.000000pt" viewBox="0 0 1080.000000 1080.000000"
 preserveAspectRatio="xMidYMid meet">
<metadata>
Created by potrace 1.14, written by Peter Selinger 2001-2017
</metadata>
<g transform="translate(0.000000,1080.000000) scale(0.100000,-0.100000)"
fill="#000000" stroke="none">
<path d="M2785 10129 c-493 -60 -923 -267 -1265 -609 -314 -314 -511 -695
-591 -1145 -20 -109 -23 -164 -23 -345 0 -242 18 -378 79 -590 198 -685 750
-1237 1435 -1435 216 -62 347 -80 595 -79 243 1 356 15 573 75 105 29 113 33
107 53 -33 113 -47 186 -52 272 -26 435 247 839 662 981 198 67 429 69 619 3
33 -11 61 -20 62 -20 9 0 67 209 89 315 36 181 48 320 42 495 -37 1008 -760
1836 -1757 2010 -144 25 -443 35 -575 19z"/>
<path d="M7501 10044 c-429 -52 -869 -251 -1172 -532 -52 -48 -60 -52 -78 -40
-15 9 -23 10 -32 1 -8 -8 10 -41 69 -124 241 -344 385 -691 449 -1084 25 -154
25 -496 0 -650 -94 -577 -385 -1105 -861 -1562 -956 -919 -2496 -1452 -4196
-1453 l-235 0 -63 -97 c-78 -121 -198 -358 -246 -486 -292 -785 -102 -1661
489 -2252 754 -754 1954 -834 2799 -186 43 33 83 58 90 55 6 -2 220 204 474
459 l464 464 -32 89 c-187 531 -184 1122 8 1660 158 439 410 823 797 1210 184
184 280 269 465 411 755 577 1826 1029 2950 1244 63 12 120 27 127 33 7 6 28
65 47 131 193 674 48 1391 -391 1935 -78 96 -266 279 -363 352 -444 335 -1010
489 -1559 422z"/>
<path d="M7650 5334 c-219 -27 -409 -70 -564 -130 -77 -29 -96 -40 -91 -53 19
-48 36 -148 42 -237 26 -434 -247 -839 -662 -981 -149 -51 -325 -65 -473 -39
l-72 12 -21 -70 c-139 -463 -110 -983 80 -1430 246 -580 749 -1028 1351 -1201
212 -61 348 -79 590 -79 242 0 378 18 590 79 685 198 1237 750 1435 1435 61
212 79 348 79 590 0 181 -3 236 -23 345 -160 902 -835 1578 -1731 1735 -121
21 -436 35 -530 24z"/>
</g>
</svg>
