<?xml version="1.0" standalone="no"?>
<!DOCTYPE svg PUBLIC "-//W3C//DTD SVG 20010904//EN"
 "http://www.w3.org/TR/2001/REC-SVG-20010904/DTD/svg10.dtd">
<svg version="1.0" xmlns="http://www.w3.org/2000/svg"
 width="260.000000pt" height="260.000000pt" viewBox="0 0 260.000000 260.000000"
 preserveAspectRatio="xMidYMid meet">
<metadata>
Created by potrace 1.14, written by Peter Selinger 2001-2017
</metadata>
<g transform="translate(0.000000,260.000000) scale(0.100000,-0.100000)"
fill="#000000" stroke="none">
<path d="M126 2424 c-4 -9 -12 -14 -22 -10 -8 3 -12 2 -9 -4 3 -6 1 -10 -5
-10 -6 0 -8 -4 -5 -10 3 -5 -1 -10 -11 -10 -14 0 -15 -2 -3 -17 8 -10 9 -14 2
-10 -6 4 -14 3 -18 -3 -3 -5 -1 -10 5 -10 6 0 8 -4 5 -10 -3 -5 0 -10 8 -10
23 0 28 -27 6 -33 -13 -4 -17 -10 -12 -23 5 -14 3 -16 -10 -11 -14 5 -16 3 -9
-11 5 -9 8 -35 7 -57 -2 -22 2 -46 9 -54 8 -11 8 -13 -1 -7 -8 4 -13 2 -13 -7
0 -18 28 -87 36 -87 3 0 2 6 -2 13 -5 8 -2 8 9 -2 9 -7 17 -20 17 -28 0 -8 5
-11 12 -7 7 4 10 4 6 -1 -4 -4 -3 -14 3 -22 7 -8 8 -13 1 -13 -5 0 -1 -18 10
-39 19 -39 19 -40 0 -59 -11 -11 -23 -18 -26 -15 -3 4 -6 -4 -6 -16 0 -12 -4
-20 -8 -17 -5 3 -8 -14 -7 -37 1 -23 6 -41 11 -40 5 1 11 -7 11 -18 1 -10 -5
-19 -12 -19 -9 0 -12 -6 -9 -15 4 -9 0 -15 -7 -15 -11 0 -11 -3 1 -10 11 -7
12 -10 2 -10 -14 0 -49 -30 -35 -30 4 0 2 -4 -6 -9 -8 -5 -16 -17 -17 -25 -1
-9 2 -13 7 -10 6 3 17 0 25 -7 12 -10 13 -9 8 5 -5 12 -2 15 12 9 12 -4 15 -3
10 5 -5 8 0 12 14 12 16 0 20 4 16 16 -3 8 -2 13 2 10 5 -3 16 4 25 15 9 10
14 19 12 19 -3 0 -1 9 5 20 6 11 15 18 20 15 5 -3 14 4 20 15 6 11 16 19 23
17 7 -1 11 6 9 16 -2 9 2 17 8 17 6 0 8 5 5 10 -4 6 -1 17 5 25 9 11 8 19 -3
35 -7 11 -18 17 -23 12 -5 -4 -6 -3 -2 2 4 5 3 17 -3 27 -6 13 -6 19 1 19 5 0
10 5 10 11 0 5 -4 7 -10 4 -7 -4 -7 3 0 20 8 20 7 27 -5 31 -8 4 -12 10 -9 15
3 5 -2 9 -10 9 -8 0 -18 5 -22 12 -5 7 -3 8 5 3 10 -5 9 -2 0 13 -7 12 -17 19
-21 16 -4 -3 -5 3 -1 12 5 13 3 15 -8 9 -11 -7 -11 -5 1 10 8 10 10 16 4 12
-7 -4 -15 0 -18 9 -4 10 -2 13 7 9 6 -4 3 1 -7 9 -11 9 -16 16 -12 16 5 0 2 8
-5 17 -8 9 -9 14 -2 10 7 -5 9 0 6 13 -3 11 -10 20 -16 20 -6 0 -7 3 -4 7 4 3
1 13 -6 21 -8 10 -8 13 -1 9 7 -4 14 0 18 8 6 16 -9 29 -24 20 -6 -3 -7 1 -4
9 3 9 10 14 14 11 5 -3 11 1 13 7 3 7 6 4 6 -7 1 -17 3 -17 11 -5 8 13 10 12
10 -3 0 -10 8 -21 18 -24 9 -4 24 -15 33 -25 9 -10 21 -18 28 -18 6 0 11 -4
11 -10 0 -5 7 -10 16 -10 8 0 13 -4 10 -9 -3 -4 6 -13 20 -20 20 -9 24 -9 18
1 -4 7 5 2 18 -12 17 -17 21 -27 14 -32 -8 -5 -7 -8 2 -8 6 0 21 -9 32 -20 12
-12 26 -18 32 -14 7 4 8 3 4 -5 -4 -6 -1 -14 8 -17 8 -3 17 -12 20 -21 4 -11
2 -13 -9 -9 -9 3 -15 0 -15 -9 0 -8 -6 -14 -12 -13 -7 2 -12 -2 -11 -9 2 -8
-4 -10 -14 -6 -13 5 -15 2 -10 -12 7 -16 5 -16 -9 -4 -16 13 -16 12 -6 -7 6
-12 8 -25 4 -29 -4 -5 -1 -5 6 -1 10 6 11 1 7 -17 -4 -14 -2 -28 4 -32 6 -3 9
-10 6 -15 -3 -4 2 -11 11 -14 8 -3 12 -2 9 4 -3 6 -1 10 4 10 6 0 11 -6 11
-12 0 -8 3 -9 8 -3 4 6 14 10 22 10 8 0 18 -4 22 -10 4 -6 8 -2 8 8 0 10 5 15
10 12 6 -3 10 -2 10 3 0 5 7 9 15 9 8 0 15 -4 15 -9 0 -5 4 -7 9 -3 6 3 15 -4
21 -16 8 -15 9 -19 1 -15 -20 13 -12 -12 9 -27 11 -8 17 -17 13 -20 -3 -4 -1
-7 5 -7 6 0 14 -9 17 -20 3 -11 14 -20 23 -20 21 -1 46 -20 50 -40 2 -8 8 -19
14 -25 8 -7 8 -5 3 5 -8 13 -7 13 9 1 21 -18 44 -57 26 -46 -7 4 -4 -5 6 -21
13 -18 14 -25 5 -20 -10 7 -12 6 -6 -5 10 -16 14 -69 6 -69 -4 0 -5 -25 -5
-55 1 -30 -2 -58 -7 -61 -6 -3 -5 -11 2 -20 8 -10 8 -14 1 -14 -6 0 -9 -7 -6
-15 4 -8 1 -15 -4 -15 -6 0 -9 -9 -7 -20 2 -11 0 -20 -6 -20 -5 0 -9 -7 -9
-16 0 -23 -26 -45 -47 -38 -13 4 -15 3 -4 -4 14 -10 5 -19 -19 -17 -8 0 -18
-4 -22 -10 -5 -6 -8 -4 -8 5 0 13 -1 13 -10 0 -7 -11 -10 -11 -10 -2 0 8 -5
10 -12 6 -8 -5 -7 0 2 11 9 11 10 16 2 11 -7 -4 -12 -1 -12 8 0 9 -5 16 -11
16 -5 0 -7 6 -3 12 11 18 12 48 2 54 -4 3 -8 10 -8 15 0 6 5 7 12 3 7 -5 8 -3
4 5 -5 7 -11 10 -14 7 -3 -3 -10 -2 -17 4 -7 6 -17 3 -28 -10 -9 -11 -13 -20
-9 -20 5 0 9 -7 9 -15 0 -8 -5 -11 -10 -8 -6 4 -8 -3 -5 -15 4 -12 2 -22 -3
-22 -5 0 -9 5 -9 12 0 6 -2 9 -5 6 -10 -10 7 -38 19 -31 6 4 5 -1 -3 -10 -7
-9 -10 -17 -6 -17 4 0 2 -6 -4 -14 -9 -11 -9 -16 0 -22 8 -5 9 -3 4 6 -6 9 -4
11 5 5 10 -6 9 -11 -5 -22 -11 -7 -14 -13 -7 -13 6 0 9 -7 5 -17 -5 -11 -3
-14 6 -8 10 6 11 3 2 -13 -8 -16 -8 -24 4 -35 8 -8 11 -17 8 -21 -4 -3 3 -6
14 -6 19 0 62 -37 55 -47 -2 -3 0 -8 4 -11 4 -4 3 0 -1 8 -5 10 -1 8 13 -4 23
-20 30 -32 12 -21 -5 3 -10 2 -10 -3 0 -6 7 -12 15 -16 8 -3 12 -12 9 -21 -3
-8 -1 -15 5 -15 7 0 7 -8 1 -26 -7 -18 -7 -23 1 -18 8 4 8 0 0 -15 -7 -11 -8
-21 -2 -21 12 0 9 -33 -4 -42 -6 -5 -3 -8 6 -8 12 0 15 -7 11 -26 -4 -21 -2
-25 9 -19 12 7 12 6 1 -8 -12 -13 -10 -18 7 -29 12 -7 21 -18 21 -25 0 -7 6
-13 13 -13 7 0 19 -9 26 -19 8 -11 21 -17 29 -13 10 3 13 1 8 -6 -8 -13 29
-26 45 -16 8 4 9 3 5 -4 -7 -12 27 -35 38 -25 3 3 14 -1 24 -10 10 -10 22 -14
25 -10 4 3 7 1 7 -5 0 -7 9 -12 19 -12 10 0 22 -7 25 -16 3 -8 2 -12 -4 -9 -6
3 -10 -1 -10 -10 0 -9 -4 -13 -10 -10 -5 3 -10 1 -10 -5 0 -6 -4 -8 -10 -5 -5
3 -10 1 -10 -5 0 -6 -4 -9 -9 -5 -5 3 -12 1 -16 -5 -3 -5 -11 -10 -16 -10 -6
0 -7 6 -3 13 5 8 2 8 -9 -2 -14 -11 -17 -11 -17 0 0 8 -6 6 -16 -7 -8 -10 -12
-13 -9 -6 5 10 0 12 -23 9 -17 -3 -33 -2 -37 1 -11 12 -33 10 -31 -3 2 -17 26
-45 38 -45 15 0 38 -27 30 -35 -4 -4 -2 -6 3 -5 30 6 47 -1 43 -18 -4 -15 -1
-18 20 -14 16 3 23 1 18 -6 -4 -6 2 -8 16 -4 13 3 19 1 15 -5 -5 -7 4 -10 23
-9 16 1 32 -3 34 -8 3 -8 5 -8 5 0 1 5 15 9 32 8 17 -1 28 0 25 3 -9 9 45 34
57 26 5 -3 7 -2 4 4 -3 5 3 17 14 26 10 9 19 13 19 9 0 -5 14 -9 31 -9 17 0
34 -5 39 -13 4 -7 13 -9 19 -6 6 4 11 0 11 -8 0 -9 7 -16 15 -16 8 0 15 -5 15
-11 0 -8 6 -7 17 2 15 12 16 12 10 -5 -6 -14 -4 -17 8 -12 8 3 15 1 15 -5 0
-6 7 -8 16 -5 8 3 13 2 10 -3 -3 -5 1 -12 10 -15 10 -4 13 -2 8 7 -6 9 -4 9 7
1 8 -7 37 -11 64 -10 28 1 58 -2 68 -7 11 -5 17 -4 17 5 1 9 4 8 13 -3 7 -9
19 -14 27 -11 9 3 7 -2 -5 -13 -11 -9 -14 -13 -7 -10 11 6 11 3 1 -13 -7 -12
-15 -19 -17 -17 -2 2 -12 -4 -23 -13 -22 -19 -22 -19 -80 -21 -36 -1 -40 -3
-29 -16 7 -8 9 -15 4 -15 -5 0 -2 -4 6 -10 9 -5 19 -5 26 1 8 7 15 6 20 -2 5
-8 3 -9 -6 -4 -9 6 -11 4 -6 -4 6 -9 12 -8 26 4 14 12 20 13 26 4 5 -8 3 -10
-6 -4 -9 5 -11 4 -6 -4 6 -8 12 -9 20 -2 9 7 17 7 26 -2 10 -9 11 -9 6 1 -4 7
-1 12 8 12 9 0 16 -6 16 -12 0 -10 2 -10 9 0 4 8 12 14 16 14 4 0 12 -6 16
-14 7 -11 9 -11 9 1 0 9 8 12 25 9 13 -3 22 -2 20 2 -3 5 2 11 11 14 12 5 15
2 10 -11 -6 -16 -6 -16 12 0 10 9 22 14 25 10 4 -3 7 -1 7 6 0 7 4 10 9 6 5
-3 12 -1 16 5 4 6 11 7 17 4 7 -4 8 -2 4 4 -4 6 5 21 19 34 14 12 25 28 25 36
0 17 25 43 34 35 3 -4 6 2 6 11 0 13 6 17 20 13 11 -3 18 -1 14 4 -3 5 4 9 15
9 11 0 23 5 26 10 4 7 13 6 27 -1 11 -6 18 -7 14 -1 -3 5 6 9 20 9 13 0 34 9
45 19 19 17 20 17 13 -2 -5 -13 0 -10 15 8 12 15 19 32 16 38 -3 5 -1 10 5 10
6 0 9 4 6 8 -3 5 8 9 25 10 16 0 27 -4 24 -9 -4 -5 -1 -9 6 -9 7 0 10 -3 6 -6
-3 -3 3 -15 13 -27 11 -11 17 -23 15 -27 -7 -11 29 -8 38 4 5 7 7 3 5 -9 -2
-12 2 -19 10 -17 8 1 11 -2 8 -7 -8 -12 56 -79 72 -74 6 3 12 -3 12 -12 0 -13
3 -15 13 -7 10 8 17 6 27 -8 7 -10 18 -16 22 -13 5 3 19 -3 30 -14 12 -10 18
-13 15 -6 -4 6 -3 14 3 18 5 3 10 -1 10 -9 0 -9 7 -13 20 -11 11 2 20 0 20 -5
0 -5 7 -6 17 -3 11 4 14 3 9 -6 -9 -14 16 -11 26 4 4 6 8 2 8 -7 0 -10 5 -18
11 -18 5 0 7 4 4 10 -3 6 1 7 9 4 9 -3 16 -10 16 -15 0 -6 9 -2 20 8 19 18 24
63 7 63 -5 0 -7 8 -5 18 2 9 -3 22 -12 29 -13 11 -13 12 0 13 13 0 13 1 0 10
-8 5 -16 13 -16 17 -5 28 -18 52 -25 47 -5 -3 -9 0 -9 7 0 6 -8 18 -17 26 -11
8 -12 11 -3 7 12 -7 13 -5 3 8 -7 8 -10 18 -6 22 4 4 0 4 -9 1 -12 -5 -14 -1
-10 21 3 19 1 25 -7 20 -6 -4 -11 -3 -11 3 0 5 -9 12 -19 16 -13 4 -18 12 -14
22 4 11 3 14 -6 9 -7 -5 -22 3 -38 18 -14 14 -29 24 -33 21 -4 -3 -10 5 -13
16 -3 12 -10 18 -15 15 -9 -6 -27 21 -24 36 1 4 -7 5 -18 3 -14 -3 -17 1 -13
12 4 11 2 14 -5 9 -7 -4 -10 -2 -8 6 3 7 7 26 10 41 5 18 11 25 19 20 9 -5 9
-3 -1 9 -10 13 -10 17 5 22 14 6 15 9 4 15 -10 7 -9 10 8 16 12 3 19 10 16 15
-3 5 4 7 16 5 17 -4 19 -2 8 11 -10 12 -9 13 3 9 10 -4 14 2 14 19 0 14 -4 22
-8 20 -4 -3 -8 0 -8 6 0 6 -5 8 -12 4 -10 -6 -10 -4 0 8 7 9 9 19 4 22 -14 8
-20 52 -10 69 5 9 4 18 -1 21 -5 4 -8 17 -6 31 1 14 -2 25 -8 25 -5 0 -4 7 3
15 7 8 8 15 3 15 -11 0 -11 29 1 48 4 6 4 17 1 22 -3 6 -1 10 5 10 6 0 9 4 6
9 -3 5 1 12 10 15 9 4 13 2 8 -5 -4 -8 1 -9 15 -4 15 5 21 2 21 -10 0 -8 7
-18 16 -22 13 -5 13 -7 2 -14 -10 -6 -9 -12 7 -24 11 -9 14 -14 8 -10 -8 4
-13 -1 -14 -12 0 -10 -2 -35 -5 -55 -2 -20 0 -39 6 -43 5 -3 7 0 4 8 -3 8 0
18 7 23 8 4 10 3 5 -4 -4 -7 -2 -12 3 -12 6 0 11 9 11 21 0 11 4 18 9 15 5 -3
15 2 22 11 12 14 12 16 -1 8 -12 -7 -13 -6 -3 6 6 8 11 18 11 22 0 5 4 12 8
15 4 4 4 1 0 -5 -4 -7 -3 -13 2 -13 5 0 12 9 15 20 3 13 1 18 -6 14 -8 -5 -7
-2 1 7 6 7 12 27 12 44 0 17 6 37 12 43 10 10 10 15 -1 21 -10 7 -11 13 -2 30
10 17 9 22 -4 27 -9 4 -14 13 -11 21 3 8 1 11 -4 8 -9 -5 -15 24 -11 48 1 5
-3 6 -9 2 -5 -3 -10 0 -10 7 0 8 -9 20 -20 28 -11 8 -20 21 -20 28 0 9 -6 12
-16 8 -8 -3 -13 -2 -9 3 3 5 -8 15 -24 22 -16 7 -27 17 -25 21 3 4 0 8 -7 8
-7 0 -10 3 -6 6 3 4 -1 13 -9 21 -8 9 -13 22 -10 30 4 9 2 11 -6 7 -8 -5 -9
-2 -5 9 3 9 1 19 -5 23 -7 4 -8 3 -4 -4 4 -7 5 -12 2 -12 -3 0 -10 10 -17 21
-7 13 -7 19 -1 15 6 -3 13 -2 17 4 3 5 0 10 -7 10 -10 0 -9 3 2 10 12 8 12 10
-3 16 -11 4 -16 13 -12 21 3 11 1 13 -10 9 -8 -3 -15 -1 -15 5 0 6 -4 8 -9 4
-5 -3 -16 2 -25 11 -9 8 -20 13 -25 9 -5 -3 -16 4 -24 15 -7 11 -17 17 -20 13
-4 -3 -7 3 -7 15 0 12 -5 22 -11 22 -5 0 -8 4 -4 9 3 5 1 12 -5 16 -15 9 -12
19 15 51 14 16 25 26 25 22 0 -4 9 0 20 10 18 15 19 18 5 28 -8 6 -11 15 -7
19 4 5 1 5 -6 1 -7 -4 -9 -13 -5 -19 5 -8 2 -8 -9 0 -8 7 -18 10 -21 6 -4 -3
-7 -1 -7 5 0 6 -7 9 -15 6 -8 -4 -13 -9 -11 -13 2 -3 -16 -6 -40 -5 -28 0 -44
-4 -44 -12 0 -10 -30 -20 -77 -26 -7 -1 -13 -6 -13 -11 0 -5 -8 -3 -17 4 -14
12 -15 12 -9 0 5 -8 -3 -6 -20 5 -15 11 -25 13 -21 7 6 -9 3 -11 -7 -7 -9 3
-16 10 -16 14 0 4 -16 7 -36 6 -22 -1 -38 4 -41 12 -3 8 -13 10 -25 6 -15 -4
-18 -3 -13 6 5 9 4 11 -4 6 -6 -4 -18 0 -27 8 -9 9 -20 14 -25 11 -13 -9 -11
9 4 24 8 10 8 12 0 7 -6 -3 -15 -1 -19 5 -4 8 -3 9 5 5 6 -4 14 0 17 9 5 13 9
13 22 3 11 -9 13 -9 9 -1 -4 6 -3 14 3 18 5 3 10 1 10 -6 0 -9 3 -9 14 0 13
11 50 5 42 -8 -2 -3 8 -6 23 -6 23 -1 27 3 26 25 -1 17 -7 25 -18 24 -9 -1
-17 3 -17 8 0 6 -7 8 -15 4 -10 -3 -15 1 -16 12 0 11 -2 13 -6 4 -4 -10 -9 -8
-20 8 -12 18 -17 19 -31 8 -12 -10 -16 -10 -19 0 -3 6 -9 10 -14 6 -16 -9 -49
-13 -49 -5 0 4 -7 8 -15 8 -8 0 -12 -4 -10 -8 3 -3 -4 -9 -15 -12 -13 -3 -18
-1 -14 6 5 9 4 9 -6 0 -7 -6 -19 -9 -26 -6 -8 3 -14 0 -14 -7 0 -6 -6 -10 -12
-7 -7 2 -25 -2 -40 -9 -21 -11 -28 -11 -31 -1 -3 7 -6 5 -6 -5 -1 -11 -6 -15
-16 -11 -9 3 -23 -3 -31 -13 -9 -11 -13 -12 -9 -4 4 8 -2 5 -12 -8 -20 -25
-63 -38 -63 -19 0 7 -4 6 -10 -3 -5 -8 -10 -10 -10 -4 0 7 -13 11 -29 10 -16
0 -27 -5 -24 -10 4 -5 -3 -7 -15 -4 -12 4 -20 2 -16 -3 4 -8 -17 -14 -38 -10
-5 0 -8 -7 -8 -17 0 -14 -2 -15 -10 -2 -9 13 -14 7 -11 -12 0 -4 -7 -4 -17 -1
-15 6 -16 5 -2 -12 9 -11 10 -16 2 -11 -7 4 -19 0 -28 -8 -8 -9 -12 -16 -7
-17 4 0 -2 -4 -15 -9 -26 -11 -55 -3 -45 13 4 6 0 8 -9 4 -11 -4 -18 1 -21 15
-4 14 -11 19 -22 14 -9 -3 -14 -2 -10 3 3 5 -1 16 -9 24 -8 8 -12 17 -9 21 4
3 -2 6 -11 6 -12 0 -16 5 -12 15 3 8 2 14 -2 13 -15 -4 -52 14 -47 23 4 5 -3
9 -14 9 -19 0 -25 10 -22 35 1 6 -5 2 -12 -7 -16 -20 -32 -24 -21 -5 5 8 3 8
-9 -2 -9 -7 -14 -17 -11 -22 3 -5 -2 -6 -11 -3 -9 4 -14 13 -11 21 3 8 2 12
-3 9 -5 -3 -11 0 -14 8 -3 8 1 17 10 20 13 5 13 9 2 23 -9 11 -10 14 -2 9 9
-5 12 4 10 34 -1 22 -6 40 -10 40 -5 0 -5 5 -2 10 3 6 -2 10 -12 10 -11 0 -24
5 -30 11 -9 9 -10 6 -6 -11 5 -19 3 -22 -10 -17 -11 4 -17 1 -17 -9 0 -8 -5
-12 -10 -9 -6 3 -13 0 -16 -8 -3 -9 -14 -13 -27 -10 -16 3 -18 2 -8 -5 9 -7
10 -12 2 -16 -6 -4 -11 -4 -11 1 0 4 -7 -3 -16 -15 -12 -18 -19 -20 -35 -12
-11 6 -25 8 -31 4 -7 -4 -8 -3 -4 4 4 7 3 12 -3 12 -5 0 -13 9 -16 20 -4 11
-11 18 -16 15 -5 -4 -9 1 -9 10 0 9 -4 14 -8 11 -5 -3 -18 3 -29 14 -12 10
-24 16 -27 13 -3 -4 -6 1 -6 11 0 10 -12 21 -30 27 -16 6 -28 14 -25 19 7 11
-20 32 -29 23 -4 -4 -4 1 0 12 4 11 4 17 -1 13 -9 -8 -35 15 -35 32 0 6 -4 9
-9 6 -5 -3 -12 1 -15 10 -3 9 -13 14 -20 11 -10 -4 -13 0 -11 14 2 11 0 17 -6
13 -5 -3 -16 -1 -23 5 -10 9 -15 8 -20 -5z m1644 -398 c0 -3 -4 -8 -10 -11 -5
-3 -10 -1 -10 4 0 6 5 11 10 11 6 0 10 -2 10 -4z m-215 -216 c4 -6 11 -8 16
-5 5 4 9 1 9 -5 0 -6 5 -8 11 -4 6 3 15 0 20 -7 7 -12 9 -11 9 1 0 10 3 11 8
4 4 -6 18 -15 31 -19 18 -5 22 -4 16 6 -6 11 -5 12 6 2 7 -7 23 -13 36 -13 13
0 23 -5 23 -11 0 -5 4 -8 9 -4 6 3 13 0 18 -7 4 -7 17 -18 28 -25 11 -6 19
-17 17 -25 -2 -7 0 -10 4 -6 4 4 13 3 21 -3 7 -6 13 -8 13 -5 0 4 6 1 14 -6 8
-7 11 -17 8 -22 -3 -5 1 -7 9 -4 10 4 20 -4 28 -24 7 -16 16 -27 19 -24 2 3
-1 12 -8 21 -11 13 -10 14 3 10 14 -6 31 -40 28 -58 -1 -5 3 -6 9 -2 5 3 13
-1 16 -9 3 -9 14 -16 23 -16 14 0 14 -2 1 -10 -13 -8 -12 -10 4 -10 12 0 16
-5 12 -15 -3 -8 0 -14 7 -12 7 1 11 -6 11 -16 -2 -15 1 -16 14 -5 13 11 15 10
9 -4 -3 -10 -2 -18 3 -18 6 0 10 -7 10 -15 0 -8 4 -15 9 -15 5 0 8 -13 7 -30
-2 -25 0 -27 13 -17 12 10 14 8 9 -10 -4 -13 -2 -26 3 -29 5 -3 9 -10 9 -15 0
-6 -4 -7 -10 -4 -5 3 -10 1 -10 -4 0 -6 8 -11 18 -12 11 0 12 -2 4 -6 -10 -4
-10 -8 -1 -19 8 -10 8 -14 0 -14 -6 0 -11 -5 -11 -11 0 -5 5 -7 12 -3 8 5 9 2
5 -9 -3 -9 0 -22 7 -29 22 -23 37 -56 26 -60 -12 -4 -18 -78 -7 -95 4 -6 3
-14 -2 -18 -6 -3 -7 -13 -4 -22 5 -12 3 -14 -8 -8 -11 6 -12 5 -2 -5 10 -11
10 -17 0 -29 -8 -10 -8 -13 0 -8 8 5 9 0 0 -23 -6 -16 -16 -30 -22 -30 -5 0
-3 -5 5 -10 13 -9 13 -11 0 -19 -8 -6 -11 -13 -7 -17 4 -4 -1 -13 -11 -21 -9
-8 -11 -11 -4 -8 11 6 11 3 0 -16 -7 -13 -16 -26 -19 -29 -5 -4 -20 -37 -23
-50 -7 -25 -30 -51 -42 -46 -9 4 -12 2 -8 -5 3 -6 -3 -17 -15 -25 -12 -9 -19
-19 -16 -24 7 -11 -35 -41 -47 -34 -5 3 -8 2 -7 -3 5 -19 -13 -41 -28 -36 -9
4 -14 2 -11 -3 3 -5 -9 -20 -26 -34 -24 -19 -28 -20 -16 -5 12 16 10 16 -11
-2 -14 -13 -33 -23 -43 -23 -9 0 -15 -4 -12 -8 3 -5 -1 -9 -9 -9 -8 0 -12 5
-8 10 3 5 -7 1 -23 -9 -15 -11 -25 -13 -21 -6 12 18 3 15 -23 -8 -17 -15 -26
-17 -37 -9 -9 8 -13 8 -13 1 0 -7 -7 -9 -17 -5 -9 4 -14 2 -10 -3 3 -6 -16 -9
-49 -9 -30 1 -54 -2 -54 -7 0 -4 -5 -8 -11 -8 -5 0 -8 3 -6 8 3 4 -21 7 -54 7
-32 0 -59 4 -59 9 0 4 -6 3 -14 -3 -10 -9 -16 -8 -26 4 -7 8 -16 12 -21 9 -5
-3 -9 1 -9 8 0 9 -3 9 -10 -2 -8 -12 -10 -12 -10 5 0 15 -3 17 -9 7 -7 -11 -9
-10 -14 3 -5 12 -11 13 -25 6 -13 -7 -24 -4 -42 10 -14 10 -28 19 -32 19 -4 0
-19 11 -33 26 -14 14 -29 23 -34 20 -5 -4 -20 7 -34 23 -14 17 -27 28 -30 25
-3 -3 -8 4 -12 15 -3 12 -10 19 -15 16 -10 -6 -22 24 -14 37 3 5 -3 12 -15 15
-11 3 -18 9 -15 14 3 5 0 9 -6 9 -6 0 -8 4 -5 10 3 5 1 10 -5 10 -7 0 -10 7
-7 14 4 9 -1 17 -12 21 -11 3 -21 15 -24 25 -3 13 -1 18 6 14 7 -3 4 1 -7 10
-10 8 -15 19 -12 24 3 5 -3 12 -13 15 -15 4 -18 11 -14 27 4 16 3 21 -5 16 -8
-5 -11 2 -8 23 2 17 0 31 -4 31 -5 0 -7 8 -5 18 1 9 -3 23 -9 31 -9 12 -8 13
4 6 12 -7 11 -3 -2 18 -21 31 -23 41 -5 31 6 -4 4 1 -5 12 -12 14 -14 24 -7
37 6 9 8 21 5 26 -3 5 2 12 11 15 12 5 13 10 5 18 -8 8 -7 15 6 25 9 8 12 12
5 9 -6 -4 -14 -2 -18 4 -3 5 -1 10 4 10 6 0 11 7 11 16 0 8 4 13 9 10 5 -4 7
4 3 16 -3 14 -1 19 6 14 7 -4 10 1 7 14 -2 11 0 20 5 20 5 0 7 9 5 19 -3 14 1
18 11 14 10 -4 15 0 13 8 -3 21 12 69 22 69 5 0 9 3 8 8 -3 18 14 51 24 45 6
-4 7 -1 3 6 -5 7 0 18 10 26 11 7 16 17 12 21 -4 4 7 20 25 37 17 16 23 24 12
17 -11 -8 -7 -1 8 14 16 15 36 29 45 30 9 2 17 8 17 14 0 12 44 52 57 52 4 0
8 8 9 18 0 9 3 12 5 5 3 -7 12 -9 20 -6 7 3 11 10 7 17 -4 6 2 4 13 -4 10 -8
16 -10 12 -6 -10 11 11 38 23 30 5 -2 21 2 37 10 16 8 32 12 35 9 4 -3 13 0
21 6 8 7 20 10 26 6 5 -3 10 -2 10 4 0 5 8 8 18 6 9 -1 25 2 36 7 13 7 16 7
12 -1 -10 -15 7 -14 22 1 9 9 12 9 12 -1 0 -11 3 -11 15 -1 12 10 15 10 16 -1
0 -10 2 -11 6 -1 2 6 9 10 14 6 5 -3 9 0 9 5 0 14 17 14 25 1z m566 -297 c13
-16 12 -17 -3 -4 -10 7 -18 15 -18 17 0 8 8 3 21 -13z m25 -30 c0 -10 4 -17
11 -16 12 3 13 -20 0 -24 -17 -7 -26 -2 -21 11 3 8 0 17 -6 21 -9 6 -9 10 1
16 8 5 15 9 15 9 1 0 1 -8 0 -17z m33 -62 c3 -1 -4 -7 -14 -15 -22 -16 -37
-12 -29 8 3 8 13 13 22 11 9 -2 19 -4 21 -4z m5 -36 c3 -8 1 -15 -4 -15 -12 0
-9 -22 5 -33 6 -5 5 -7 -3 -5 -8 2 -12 6 -10 9 2 3 -3 13 -11 22 -9 12 -10 17
-2 17 7 0 9 5 6 10 -3 6 -2 10 3 10 6 0 12 -7 16 -15z m-1483 -912 c13 -16 12
-17 -3 -4 -10 7 -18 15 -18 17 0 8 8 3 21 -13z m1349 1 c0 -8 -19 -13 -24 -6
-3 5 1 9 9 9 8 0 15 -2 15 -3z m71 -81 c13 -16 12 -17 -3 -4 -10 7 -18 15 -18
17 0 8 8 3 21 -13z"/>
<path d="M1513 1732 c-9 -9 -13 -10 -13 -2 0 7 -6 5 -16 -4 -20 -21 -28 -20
-20 0 5 14 4 15 -9 4 -8 -7 -15 -9 -15 -4 0 4 -5 3 -12 -4 -8 -8 -15 -9 -25
-1 -10 9 -13 8 -13 -1 0 -7 -6 -18 -13 -24 -7 -6 -10 -10 -8 -9 2 2 10 -5 18
-15 10 -11 12 -12 8 -2 -5 12 -4 12 7 -1 13 -16 19 -19 39 -19 5 0 7 -4 4 -10
-3 -5 3 -10 13 -10 16 0 53 -28 41 -31 -31 -6 -39 -6 -39 3 0 6 -6 5 -15 -2
-12 -10 -15 -10 -16 1 0 8 -5 1 -11 -15 -8 -22 -8 -31 1 -34 6 -2 11 -10 11
-17 0 -8 9 -17 20 -20 11 -3 20 -11 20 -16 0 -5 7 -9 15 -9 8 0 15 -4 15 -10
0 -5 7 -10 15 -10 8 0 15 -7 15 -16 0 -8 3 -13 8 -11 4 2 18 -7 32 -21 14 -13
19 -21 12 -18 -7 4 -4 -7 8 -26 11 -18 20 -43 20 -55 0 -12 8 -27 18 -33 15
-10 15 -11 0 -6 -12 3 -15 1 -11 -10 3 -7 10 -14 17 -14 6 0 4 -5 -4 -10 -11
-7 -11 -10 -2 -10 7 0 11 -4 8 -9 -3 -5 1 -12 10 -15 11 -4 14 -13 11 -28 -4
-12 -1 -29 6 -37 10 -12 9 -13 -1 -7 -16 10 -13 -25 3 -36 6 -5 5 -8 -3 -8
-10 0 -10 -5 -1 -21 9 -17 8 -20 -1 -14 -10 6 -12 1 -8 -19 3 -14 1 -29 -4
-32 -4 -3 -6 -10 -3 -15 4 -5 2 -9 -3 -9 -6 0 -9 -14 -8 -30 2 -21 -2 -29 -10
-26 -8 3 -11 -1 -7 -11 3 -8 0 -19 -8 -24 -10 -6 -10 -9 -1 -9 6 0 12 -4 12
-10 0 -5 -6 -9 -12 -7 -7 1 -12 -6 -12 -15 1 -10 -2 -15 -7 -12 -10 6 -10 4
-13 -43 -1 -18 -8 -38 -15 -45 -11 -11 -12 -10 -6 2 8 13 7 13 -11 0 -10 -8
-26 -23 -35 -32 -9 -10 -19 -15 -23 -11 -3 3 -6 1 -6 -6 0 -7 -5 -9 -10 -6 -6
4 -17 1 -25 -5 -8 -7 -22 -10 -30 -6 -9 3 -14 2 -11 -3 7 -11 -22 -23 -35 -15
-6 3 -16 1 -23 -6 -8 -6 -26 -9 -40 -6 -16 3 -26 0 -26 -7 0 -8 -3 -7 -9 2 -6
9 -11 10 -15 2 -4 -6 -11 -9 -16 -6 -5 3 -18 0 -29 -6 -17 -12 -18 -15 -4 -36
12 -17 19 -20 32 -13 12 6 22 5 29 -2 9 -9 12 -8 12 2 0 13 2 13 10 0 6 -9 13
-11 18 -5 11 16 40 12 59 -8 17 -18 17 -19 -5 -37 -27 -22 -20 -44 10 -34 15
5 19 3 13 -7 -6 -11 -5 -11 5 -2 7 6 18 9 25 7 7 -3 16 -1 19 5 5 7 15 7 32 1
19 -7 23 -7 18 2 -5 8 -2 9 9 5 10 -3 17 -2 17 3 0 6 5 10 11 10 5 0 7 -6 4
-12 -4 -7 -1 -6 7 2 7 9 21 14 31 12 9 -2 17 1 17 6 0 5 12 8 26 6 18 -2 24 2
20 11 -3 8 2 12 12 11 9 -2 23 4 30 13 11 14 11 14 6 -4 -5 -19 -5 -19 10 -1
8 10 20 15 27 10 8 -4 10 -3 5 4 -4 7 -3 12 2 12 5 0 22 12 38 27 16 15 34 28
39 28 6 0 9 9 7 19 -2 12 1 16 9 10 9 -5 10 -2 6 9 -4 10 -2 16 5 14 7 -1 12
3 13 10 0 19 12 25 18 8 4 -8 2 -15 -3 -15 -5 0 -7 -10 -5 -22 3 -12 -1 -28
-7 -36 -7 -8 -13 -20 -14 -28 -2 -11 2 -11 19 -2 20 10 21 10 8 -5 -18 -22 -9
-22 17 2 12 10 19 20 16 24 -3 3 3 4 12 4 10 -1 27 12 40 30 12 18 25 29 28
25 4 -3 4 1 0 11 -4 11 0 19 10 23 9 3 13 10 10 15 -3 5 0 9 6 9 6 0 8 5 5 10
-3 6 -1 10 5 10 7 0 10 7 6 15 -5 14 6 20 28 16 5 -1 4 4 -3 12 -9 12 -9 16 0
19 7 2 13 17 15 33 2 15 9 32 16 36 10 7 10 9 -2 9 -12 0 -12 2 -2 9 8 4 13
11 13 15 -3 19 0 27 8 21 6 -3 7 6 2 22 -10 34 -4 56 12 47 9 -5 9 -4 1 5 -15
16 -6 53 10 44 7 -5 7 -2 -1 8 -6 8 -10 27 -9 42 2 15 0 27 -3 27 -3 0 -6 19
-6 43 0 39 -10 72 -36 121 -8 14 -7 17 3 11 7 -3 4 1 -6 9 -11 9 -14 16 -8 16
7 0 12 5 12 10 0 6 -7 10 -15 10 -8 0 -15 5 -15 11 0 5 5 7 12 3 6 -4 8 -3 5
3 -4 6 -25 9 -48 7 -38 -3 -40 -2 -23 11 18 13 17 14 -6 8 -14 -3 -22 -2 -18
2 4 4 0 14 -10 22 -10 9 -11 11 -2 7 13 -7 13 -5 1 9 -7 9 -17 14 -22 11 -5
-3 -6 3 -2 12 5 13 3 15 -7 9 -8 -5 -11 -4 -6 3 4 6 -7 24 -24 40 -16 16 -27
32 -23 35 3 4 -3 7 -15 7 -14 0 -22 6 -22 17 0 9 -3 13 -6 10 -4 -3 -19 7 -34
23 -16 17 -33 30 -40 30 -6 0 -8 5 -4 12 5 7 0 9 -14 6 -15 -4 -19 -2 -15 8 5
12 -13 19 -39 15 -5 0 -8 4 -8 9 0 6 -16 10 -36 10 -19 0 -33 4 -30 9 9 13
-56 7 -71 -7z m114 -887 c0 -8 -4 -15 -9 -15 -10 0 -11 14 -1 23 9 10 10 9 10
-8z m-400 -214 c0 -11 -5 -18 -9 -15 -4 3 -5 11 -1 19 7 21 12 19 10 -4z"/>
<path d="M1053 1423 c-3 -7 -9 -10 -14 -7 -5 3 -9 -2 -9 -10 0 -8 -8 -20 -17
-25 -10 -6 -13 -11 -8 -11 6 0 3 -5 -5 -10 -13 -9 -13 -10 0 -10 9 -1 5 -6
-10 -15 -14 -8 -19 -14 -12 -15 7 0 10 -5 7 -10 -4 -6 -12 -7 -18 -3 -7 4 -6
0 2 -10 9 -12 10 -17 2 -17 -8 0 -9 -5 -2 -18 6 -10 6 -24 1 -32 -5 -8 -6 -18
-4 -22 3 -5 7 -20 10 -34 4 -20 1 -24 -13 -22 -10 2 -21 7 -24 11 -3 5 -9 -1
-12 -12 -3 -12 -2 -21 3 -21 4 0 6 -11 5 -25 -2 -14 0 -25 5 -25 4 0 10 -9 13
-20 4 -14 10 -18 24 -14 15 6 16 4 6 -7 -15 -16 -17 -33 -3 -24 9 6 14 -8 11
-28 0 -4 5 -6 11 -5 7 2 12 -3 10 -11 -2 -8 3 -11 12 -8 9 4 15 1 13 -6 -1 -7
4 -11 11 -9 6 1 12 -3 12 -9 0 -6 7 -9 15 -5 8 3 15 1 15 -5 0 -6 7 -8 16 -5
8 3 12 2 9 -4 -3 -6 3 -10 14 -10 11 0 23 -5 26 -10 4 -7 12 -7 23 -1 12 7 23
5 36 -7 11 -9 16 -11 12 -4 -6 9 -1 11 20 8 15 -3 36 0 47 6 17 9 19 8 13 -8
-5 -17 -5 -17 6 -3 7 9 23 15 35 14 12 -1 22 1 21 4 -3 28 2 33 19 20 11 -10
14 -10 9 -1 -4 7 -2 12 5 12 7 0 10 3 6 6 -8 8 18 34 33 34 7 0 9 7 6 16 -3 8
-2 13 2 11 4 -3 16 7 27 22 12 16 14 22 4 16 -9 -6 -8 -3 2 6 13 12 14 20 7
34 -8 13 -7 16 1 11 6 -4 11 -2 11 4 0 6 4 9 9 6 5 -4 7 3 4 14 -3 11 -10 20
-17 21 -6 0 -2 4 9 9 11 5 15 9 8 9 -7 1 -10 8 -6 16 3 10 1 15 -7 13 -6 -2
-16 7 -21 20 -5 13 -5 22 1 22 6 0 10 5 10 11 0 5 -4 8 -9 5 -5 -4 -7 4 -3 16
3 14 1 19 -6 14 -8 -5 -10 -2 -6 8 3 9 1 16 -5 16 -6 0 -10 3 -10 8 3 19 -2
33 -11 27 -6 -3 -10 4 -10 16 0 12 -3 20 -6 16 -4 -3 -13 1 -21 9 -8 8 -19 12
-24 9 -5 -4 -9 1 -9 10 0 9 -4 13 -10 10 -5 -3 -10 -1 -10 4 0 6 -5 11 -11 11
-5 0 -7 -5 -3 -11 3 -6 -5 -3 -20 6 -17 12 -26 13 -26 5 0 -6 -6 -10 -12 -7
-7 2 -12 11 -10 18 3 9 -2 9 -15 -3 -14 -13 -22 -14 -37 -6 -14 8 -17 7 -12
-1 4 -6 3 -11 -3 -11 -5 0 -11 6 -13 12 -3 9 -9 8 -22 -5 -19 -18 -31 -23 -22
-8 4 5 -2 8 -11 7 -12 -2 -18 -12 -17 -29 0 -14 -4 -23 -10 -20 -5 4 -7 -1 -3
-11 6 -14 4 -15 -15 -5 -21 11 -21 12 -4 25 13 9 16 19 11 31 -5 10 -8 21 -7
24 2 12 -30 5 -35 -8z m-8 -363 c-3 -5 -12 -10 -18 -10 -7 0 -6 4 3 10 19 12
23 12 15 0z"/>
<path d="M955 1181 c-3 -5 -2 -12 3 -15 5 -3 9 1 9 9 0 17 -3 19 -12 6z"/>
<path d="M1070 613 c0 -6 8 -17 18 -24 16 -13 16 -13 2 6 -8 11 -16 22 -17 24
-2 2 -3 0 -3 -6z"/>
<path d="M0 1541 c0 -32 16 -42 26 -16 3 8 -1 22 -10 30 -15 15 -16 14 -16
-14z"/>
<path d="M597 484 c-13 -13 6 -34 25 -28 16 5 19 3 13 -7 -5 -8 -4 -10 0 -6
12 10 16 39 5 32 -5 -3 -11 1 -13 7 -4 10 -6 10 -6 1 -1 -7 -6 -13 -12 -13 -5
0 -7 5 -4 10 7 11 2 14 -8 4z"/>
</g>
</svg>
