<?xml version="1.0" standalone="no"?>
<!DOCTYPE svg PUBLIC "-//W3C//DTD SVG 20010904//EN"
 "http://www.w3.org/TR/2001/REC-SVG-20010904/DTD/svg10.dtd">
<svg version="1.0" xmlns="http://www.w3.org/2000/svg"
 width="260.000000pt" height="260.000000pt" viewBox="0 0 260.000000 260.000000"
 preserveAspectRatio="xMidYMid meet">
<metadata>
Created by potrace 1.14, written by Peter Selinger 2001-2017
</metadata>
<g transform="translate(0.000000,260.000000) scale(0.100000,-0.100000)"
fill="#000000" stroke="none">
<path d="M1374 2462 c-48 -19 -89 -47 -127 -87 -33 -35 -93 -156 -102 -206
-11 -66 -13 -104 -4 -109 4 -3 9 -84 10 -180 1 -96 4 -179 7 -185 3 -5 6 -28
7 -50 0 -22 3 -44 7 -50 3 -5 9 -41 13 -80 4 -38 9 -73 11 -77 2 -3 0 -9 -5
-12 -8 -5 -111 78 -119 97 -2 4 -8 5 -13 1 -5 -3 -9 0 -9 5 0 6 -5 11 -11 11
-15 0 -139 81 -174 114 -15 14 -31 23 -35 21 -5 -3 -10 -2 -12 2 -4 11 -65 53
-76 53 -5 0 -14 11 -21 24 -23 43 -152 95 -223 90 -46 -3 -199 -75 -234 -110
-38 -39 -67 -100 -68 -145 -1 -21 -4 -39 -8 -39 -4 0 -3 -12 3 -27 6 -16 10
-29 9 -31 -5 -9 13 -62 21 -62 6 0 8 -4 5 -9 -3 -5 1 -14 9 -21 8 -7 15 -22
15 -34 0 -17 2 -18 10 -6 6 10 10 11 10 3 0 -7 3 -12 8 -12 18 3 31 -3 58 -27
16 -14 52 -36 79 -49 43 -19 47 -24 30 -31 -26 -11 -90 -54 -80 -54 5 0 0 -9
-10 -20 -10 -11 -22 -17 -28 -13 -6 3 -7 1 -3 -5 4 -7 2 -12 -3 -12 -6 0 -11
-3 -10 -8 2 -14 -13 -52 -20 -48 -3 2 -8 -23 -9 -56 -3 -53 1 -69 37 -142 44
-91 73 -125 141 -164 40 -24 55 -27 137 -26 50 0 106 7 125 14 120 46 183 94
265 200 32 41 88 107 125 145 38 39 68 73 68 78 0 4 4 7 10 7 5 0 0 -19 -10
-42 -11 -24 -20 -48 -20 -55 0 -6 -5 -24 -12 -40 -6 -15 -10 -32 -9 -36 1 -5
-7 -20 -17 -35 -16 -23 -29 -68 -47 -159 -2 -13 -1 -23 3 -23 4 0 8 -26 9 -57
2 -31 7 -59 12 -62 4 -3 11 -33 14 -66 3 -33 13 -91 22 -130 9 -38 18 -77 20
-86 2 -9 8 -34 14 -54 6 -21 7 -43 4 -48 -3 -6 -1 -7 5 -3 7 4 12 1 12 -7 0
-28 26 -66 39 -57 15 9 23 70 10 70 -5 0 -9 9 -9 20 0 11 -4 29 -10 40 -5 11
-15 30 -21 42 -6 12 -12 36 -14 52 -1 17 -7 41 -13 53 -7 12 -14 41 -17 64 -3
23 -8 46 -11 51 -4 6 -8 37 -10 71 -2 34 -5 82 -8 107 -3 36 7 78 50 205 30
88 56 165 58 170 1 6 9 24 15 40 7 17 15 45 18 62 7 40 20 42 33 7 21 -55 10
-128 -40 -274 -8 -24 -13 -43 -26 -120 -11 -69 -20 -186 -17 -225 5 -57 34
-188 44 -201 5 -6 7 -13 4 -16 -2 -2 11 -21 30 -41 19 -20 35 -45 35 -54 0 -9
3 -14 6 -10 4 3 21 -4 38 -17 17 -13 50 -30 74 -38 23 -8 39 -18 35 -22 -5 -5
2 -5 14 -2 13 4 28 4 35 0 27 -17 131 -20 136 -5 2 6 10 11 18 11 8 0 14 5 14
12 0 6 3 8 6 5 13 -13 73 82 95 150 13 40 27 69 31 67 4 -3 6 1 4 8 -3 7 -7
49 -11 93 l-6 80 23 -22 c41 -38 134 -81 189 -88 90 -12 121 -7 169 27 25 17
50 31 57 31 7 0 10 3 9 6 -2 3 11 22 30 41 19 19 38 49 43 68 12 43 6 143 -12
210 -9 29 -16 56 -17 60 -10 33 -27 56 -85 115 -37 37 -73 67 -80 67 -8 0 -27
11 -44 25 -36 31 -146 70 -221 79 -30 4 -84 11 -120 16 -36 6 -78 12 -95 14
-32 4 -110 15 -135 20 -8 2 -23 6 -32 11 -10 4 -24 5 -32 2 -16 -6 -91 14
-106 29 -7 7 3 11 32 13 83 5 104 8 133 23 17 8 59 21 95 28 109 21 120 25
380 148 30 14 61 32 68 39 7 7 20 13 28 13 8 0 14 5 14 10 0 6 6 10 13 10 16
0 121 102 125 121 4 21 26 63 37 71 6 5 5 8 -2 8 -9 0 -11 16 -7 58 5 44 2 62
-8 73 -8 8 -15 21 -16 29 -1 8 -3 29 -4 46 -2 17 -8 37 -14 45 -6 8 -14 22
-17 32 -4 10 -11 15 -17 12 -6 -3 -13 1 -16 9 -3 9 -13 16 -22 16 -8 0 -13 3
-9 6 10 10 -16 30 -67 54 -59 26 -202 36 -210 14 -3 -8 -11 -14 -18 -14 -7 0
-26 -11 -42 -25 -16 -14 -32 -25 -36 -25 -4 0 -9 43 -12 95 -4 106 1 96 -102
180 l-50 39 -101 2 c-70 1 -114 -4 -141 -14z"/>
</g>
</svg>
